PathFileType	4	(X/Y/Z)	 2.5Hzhigh3min.trc
DataRate	CameraRate	NumFrames	NumMarkers	Units	OrigDataRate	OrigDataStartFrame	OrigNumFrames
200	200	7	43	m	200	1	1000
Frame#	Time	C7			LSH			RSH			MAN			RASI			LASI			HIPR			HIPL			RPSI			LPSI			COX			RTHI1			RTHI2			RTHI3			RTHI4			RLKN			RMKN			RSHA1			RSHA2			RSHA3			RSHA4			RLMAL			RMMAL			RHEEL			RMET5			RMET1			RTOE			LTHI1			LTHI2			LTHI3			LTHI4			LLKN			LMKN			LSHA1			LSHA2			LSHA3			LSHA4			LLMAL			LMMAL			LHEEL			LMET5			LMET1			LTOE			
		X1	Y1	Z1	X2	Y2	Z2	X3	Y3	Z3	X4	Y4	Z4	X5	Y5	Z5	X6	Y6	Z6	X7	Y7	Z7	X8	Y8	Z8	X9	Y9	Z9	X10	Y10	Z10	X11	Y11	Z11	X12	Y12	Z12	X13	Y13	Z13	X14	Y14	Z14	X15	Y15	Z15	X16	Y16	Z16	X17	Y17	Z17	X18	Y18	Z18	X19	Y19	Z19	X20	Y20	Z20	X21	Y21	Z21	X22	Y22	Z22	X23	Y23	Z23	X24	Y24	Z24	X25	Y25	Z25	X26	Y26	Z26	X27	Y27	Z27	X28	Y28	Z28	X29	Y29	Z29	X30	Y30	Z30	X31	Y31	Z31	X32	Y32	Z32	X33	Y33	Z33	X34	Y34	Z34	X35	Y35	Z35	X36	Y36	Z36	X37	Y37	Z37	X38	Y38	Z38	X39	Y39	Z39	X40	Y40	Z40	X41	Y41	Z41	X42	Y42	Z42	X43	Y43	Z43	
1	0.0050	-0.278542	1.537818	-0.563613	-0.213191	1.493751	-0.771765	-0.158028	1.486441	-0.376496	-0.148503	1.465190	-0.579229	-0.149578	1.026656	-0.446683	-0.174789	1.024656	-0.691427	-0.228754	1.082732	-0.403546	-0.249299	1.066682	-0.721379	-0.330879	1.076356	-0.497937	-0.343459	1.071997	-0.594890	-0.342858	1.072881	-0.545458	-0.227340	0.766009	-0.374718	-0.213675	0.707380	-0.378964	-0.150071	0.718748	-0.382201	-0.155494	0.780038	-0.378096	-0.193889	0.511004	-0.398336	-0.178898	0.489281	-0.514798	-0.285632	0.337027	-0.375522	-0.303008	0.298816	-0.383948	-0.234860	0.319527	-0.382621	-0.244553	0.281454	-0.385199	-0.351869	0.128292	-0.407999	-0.322640	0.125616	-0.489837	-0.399650	0.127377	-0.463555	-0.268783	0.033657	-0.381495	-0.212190	0.043900	-0.455203	-0.190863	0.034786	-0.460494	-0.252422	0.776124	-0.746189	-0.235016	0.717142	-0.747239	-0.172281	0.729113	-0.758220	-0.182158	0.788559	-0.759439	-0.198256	0.513665	-0.738765	-0.177946	0.501232	-0.622859	-0.296869	0.338000	-0.741257	-0.309531	0.300245	-0.732828	-0.250947	0.284477	-0.739503	-0.244461	0.326792	-0.747729	-0.349367	0.130596	-0.713080	-0.306391	0.129794	-0.636008	-0.391466	0.132071	-0.648373	-0.273093	0.033165	-0.741603	-0.210979	0.039528	-0.670076	-0.187008	0.033147	-0.680980	
2	0.0100	-0.277917	1.531758	-0.563914	-0.212095	1.486969	-0.771983	-0.157255	1.479741	-0.376773	-0.148035	1.458267	-0.579327	-0.149851	1.020455	-0.446731	-0.175696	1.018384	-0.692033	-0.229747	1.076143	-0.403002	-0.250916	1.060084	-0.721710	-0.331560	1.069997	-0.497911	-0.344310	1.065601	-0.594769	-0.343635	1.066430	-0.545372	-0.226842	0.759477	-0.374027	-0.212754	0.701044	-0.378398	-0.149249	0.712881	-0.381759	-0.155149	0.774118	-0.377665	-0.191601	0.504867	-0.398541	-0.176221	0.483232	-0.514368	-0.284950	0.332481	-0.375333	-0.302860	0.294079	-0.383805	-0.234430	0.314317	-0.382882	-0.244388	0.276374	-0.385281	-0.353285	0.124779	-0.407630	-0.325407	0.121926	-0.489984	-0.402322	0.123432	-0.462158	-0.268872	0.032781	-0.380484	-0.212526	0.043708	-0.455528	-0.191077	0.034575	-0.461173	-0.252116	0.769683	-0.747016	-0.234339	0.710750	-0.748033	-0.171520	0.723298	-0.758016	-0.181815	0.782593	-0.759063	-0.195543	0.507670	-0.739107	-0.176193	0.495190	-0.623141	-0.296068	0.333217	-0.742163	-0.309321	0.295719	-0.733393	-0.250820	0.279132	-0.739357	-0.243731	0.321227	-0.747844	-0.352474	0.127102	-0.712943	-0.310252	0.126302	-0.635325	-0.395400	0.128546	-0.649096	-0.274530	0.031834	-0.743352	-0.212494	0.039611	-0.670921	-0.188183	0.032993	-0.681262	
3	0.0150	-0.277286	1.525861	-0.564137	-0.211163	1.480308	-0.772189	-0.156606	1.473113	-0.377033	-0.147428	1.451411	-0.579442	-0.150070	1.014084	-0.446800	-0.176538	1.011914	-0.692722	-0.230671	1.069299	-0.402299	-0.252454	1.053215	-0.722074	-0.332390	1.063528	-0.497885	-0.345197	1.059028	-0.594750	-0.344482	1.059807	-0.545318	-0.226476	0.753032	-0.373573	-0.211886	0.694773	-0.377972	-0.148477	0.707117	-0.381082	-0.154907	0.768277	-0.376950	-0.189443	0.498838	-0.398735	-0.173895	0.477490	-0.514027	-0.284150	0.327880	-0.375458	-0.302436	0.289477	-0.383819	-0.233773	0.309225	-0.383407	-0.243947	0.271439	-0.385658	-0.354734	0.121383	-0.407801	-0.327657	0.118325	-0.490512	-0.404645	0.119583	-0.461865	-0.269106	0.032131	-0.379730	-0.212839	0.043531	-0.455767	-0.191141	0.034465	-0.461529	-0.252050	0.763053	-0.747810	-0.233821	0.704260	-0.748939	-0.170992	0.717361	-0.758265	-0.181755	0.776529	-0.759128	-0.192866	0.501770	-0.739376	-0.173991	0.489129	-0.623731	-0.295488	0.328956	-0.742838	-0.309415	0.291764	-0.733697	-0.251148	0.274119	-0.739103	-0.243293	0.316018	-0.747867	-0.354932	0.124320	-0.712796	-0.313421	0.123177	-0.634736	-0.398528	0.125520	-0.649888	-0.275666	0.030946	-0.744574	-0.213762	0.039563	-0.671053	-0.189129	0.032847	-0.681145	
4	0.0200	-0.276655	1.520079	-0.564357	-0.210269	1.473734	-0.772402	-0.156001	1.466555	-0.377257	-0.146788	1.444641	-0.579563	-0.150264	1.007685	-0.446847	-0.177348	1.005389	-0.693428	-0.231578	1.062412	-0.401551	-0.253969	1.046277	-0.722442	-0.333262	1.057055	-0.497859	-0.346094	1.052445	-0.594727	-0.345334	1.053164	-0.545269	-0.226157	0.746783	-0.373114	-0.211076	0.688695	-0.377534	-0.147764	0.701534	-0.380391	-0.154712	0.762619	-0.376228	-0.187401	0.492919	-0.398941	-0.171668	0.471900	-0.513737	-0.283311	0.323308	-0.375647	-0.301976	0.284927	-0.383929	-0.233109	0.304188	-0.384016	-0.243473	0.266542	-0.386167	-0.356166	0.118029	-0.408154	-0.329782	0.114791	-0.491183	-0.406858	0.115780	-0.461845	-0.269358	0.031533	-0.379079	-0.213139	0.043373	-0.456013	-0.191203	0.034356	-0.461864	-0.251967	0.756412	-0.748521	-0.233284	0.697764	-0.749770	-0.170472	0.711416	-0.758606	-0.181712	0.770458	-0.759307	-0.190327	0.495932	-0.739653	-0.171795	0.483136	-0.624386	-0.294827	0.324727	-0.743485	-0.309362	0.287816	-0.734016	-0.251294	0.269226	-0.738867	-0.242755	0.310938	-0.747889	-0.357184	0.121484	-0.712588	-0.316371	0.120082	-0.634095	-0.401518	0.122418	-0.650485	-0.276660	0.030123	-0.745689	-0.214872	0.039509	-0.671191	-0.189934	0.032704	-0.681026	
5	0.0250	-0.276018	1.514559	-0.564545	-0.209501	1.467355	-0.772622	-0.155510	1.460146	-0.377439	-0.146062	1.438059	-0.579703	-0.150397	1.001184	-0.446852	-0.178081	0.998715	-0.694196	-0.232431	1.055373	-0.400685	-0.255412	1.039133	-0.722834	-0.334252	1.050546	-0.497837	-0.347013	1.045801	-0.594713	-0.346193	1.046472	-0.545253	-0.225979	0.740868	-0.372773	-0.210389	0.682934	-0.377153	-0.147171	0.696264	-0.379578	-0.154640	0.757274	-0.375375	-0.185594	0.487244	-0.399172	-0.169727	0.466684	-0.513556	-0.282408	0.318783	-0.376091	-0.301374	0.280502	-0.384265	-0.232343	0.299296	-0.384850	-0.242862	0.261792	-0.386982	-0.357584	0.114831	-0.409002	-0.331494	0.111388	-0.492213	-0.408776	0.112069	-0.462663	-0.269701	0.031104	-0.378674	-0.213401	0.043244	-0.456224	-0.191192	0.034293	-0.462025	-0.251994	0.749775	-0.749135	-0.232827	0.691319	-0.750583	-0.170094	0.705499	-0.759244	-0.181825	0.764423	-0.759798	-0.188010	0.490275	-0.739917	-0.169441	0.477282	-0.625226	-0.294152	0.320762	-0.743963	-0.309251	0.284131	-0.734189	-0.251408	0.264627	-0.738547	-0.242204	0.306167	-0.747823	-0.358950	0.118948	-0.712246	-0.318748	0.117222	-0.633398	-0.403950	0.119499	-0.650815	-0.277382	0.029578	-0.746426	-0.215704	0.039397	-0.671020	-0.190493	0.032575	-0.680741	
6	0.0300	-0.275381	1.509394	-0.564737	-0.208844	1.461253	-0.772861	-0.155137	1.453980	-0.377529	-0.145301	1.431787	-0.579869	-0.150461	0.994639	-0.446758	-0.178718	0.991921	-0.695021	-0.233280	1.048251	-0.399716	-0.256779	1.031821	-0.723227	-0.335324	1.044095	-0.497862	-0.347919	1.039245	-0.594583	-0.346988	1.039915	-0.545277	-0.225945	0.735445	-0.372457	-0.209875	0.677650	-0.376783	-0.146753	0.691447	-0.378727	-0.154709	0.752386	-0.374502	-0.184105	0.481942	-0.399427	-0.168060	0.461910	-0.513497	-0.281523	0.314347	-0.376857	-0.300749	0.276233	-0.384902	-0.231573	0.294609	-0.385882	-0.242227	0.257211	-0.388111	-0.358921	0.111834	-0.410307	-0.332852	0.108165	-0.493606	-0.410404	0.108468	-0.464157	-0.270114	0.030810	-0.378532	-0.213610	0.043155	-0.456442	-0.191167	0.034230	-0.462123	-0.252060	0.743414	-0.749600	-0.232449	0.685135	-0.751251	-0.169848	0.699795	-0.760092	-0.182026	0.758610	-0.760539	-0.186064	0.484903	-0.740204	-0.167102	0.471708	-0.626181	-0.293340	0.316936	-0.744288	-0.308867	0.280529	-0.734313	-0.251194	0.260364	-0.738215	-0.241488	0.301754	-0.747703	-0.360293	0.116400	-0.711671	-0.320583	0.114496	-0.632522	-0.405961	0.116514	-0.650604	-0.277842	0.029175	-0.746879	-0.216206	0.039272	-0.670830	-0.190741	0.032462	-0.680447	
7	0.0350	-0.274751	1.504684	-0.564940	-0.208308	1.455523	-0.773126	-0.154888	1.448154	-0.377565	-0.144543	1.425979	-0.580054	-0.150438	0.988087	-0.446507	-0.179236	0.985024	-0.695916	-0.234237	1.041110	-0.398673	-0.258059	1.024366	-0.723656	-0.336443	1.037832	-0.497979	-0.348777	1.032925	-0.594273	-0.347682	1.033689	-0.545334	-0.226102	0.730646	-0.372203	-0.209606	0.672968	-0.376451	-0.146567	0.687175	-0.377845	-0.154959	0.748054	-0.373627	-0.183010	0.477147	-0.399739	-0.166665	0.457675	-0.513579	-0.280680	0.310176	-0.377785	-0.300166	0.272235	-0.385869	-0.230870	0.290218	-0.387097	-0.241624	0.252897	-0.389544	-0.360178	0.108994	-0.412092	-0.333833	0.105115	-0.495369	-0.411715	0.105009	-0.466368	-0.270589	0.030660	-0.378655	-0.213750	0.043090	-0.456659	-0.191093	0.034185	-0.462138	-0.252229	0.737555	-0.749930	-0.232239	0.679444	-0.751814	-0.169809	0.694506	-0.761112	-0.182373	0.753225	-0.761463	-0.184587	0.479947	-0.740531	-0.164886	0.466584	-0.627214	-0.292457	0.313297	-0.744386	-0.308261	0.277065	-0.734198	-0.250696	0.256473	-0.737719	-0.240668	0.297732	-0.747453	-0.361316	0.113933	-0.710769	-0.321851	0.111920	-0.631437	-0.407479	0.113605	-0.649741	-0.278154	0.028927	-0.747026	-0.216463	0.039149	-0.670592	-0.190783	0.032367	-0.680182	
